<?xml version="1.0" encoding="UTF-8"?>
<svg id="Layer_2" data-name="Layer 2" xmlns="http://www.w3.org/2000/svg" xmlns:xlink="http://www.w3.org/1999/xlink" viewBox="0 0 841.89 595.28">
  <defs>
    <style>
      .cls-1 {
        fill: none;
      }

      .cls-2 {
        clip-path: url(#clippath-1);
      }

      .cls-3 {
        clip-path: url(#clippath);
      }
    </style>
    <clipPath id="clippath">
      <rect class="cls-1" width="841.89" height="595.28"/>
    </clipPath>
    <clipPath id="clippath-1">
      <rect class="cls-1" width="841.89" height="595.28"/>
    </clipPath>
  </defs>
  <g id="Layer_1-2" data-name="Layer 1">
    <g class="cls-3">
      <g class="cls-2">
        <path d="M571.62,344.68v85.83c-44.82,13.83-89.52,27.62-134.58,41.53,2.54,2.98,4.96,5.64,7.35,8.35,2.41,2.73,4.83,5.45,7.25,8.18,2.42,2.73,4.83,5.46,7.25,8.18,2.4,2.71,4.81,5.43,7.41,8.37-20.12,6.41-39.94,12.73-59.94,19.1-9.78-10.23-19.57-20.48-29.4-30.76-.64.24-1.17.43-1.68.64-15.18,6.53-30.92,11.14-47.24,13.7-12.26,1.93-24.6,2.47-36.99,2.06-15.31-.5-30.39-2.58-45.11-6.87-26.4-7.69-49.83-20.59-69.24-40.28-21.06-21.36-34.69-46.76-40.6-76.21-2.71-13.5-3.35-27.15-2.48-40.9,1.88-29.81,11.98-56.59,29.85-80.42,16.52-22.03,37.82-37.95,63.08-48.71,7.29-3.11,14.86-5.38,22.37-7.87,92.67-30.74,185.33-61.5,278-92.25,8.4-2.79,16.79-5.57,25.18-8.38,1.16-.39,2.25-.47,3.48-.23,23.07,4.62,46.15,9.2,69.23,13.76,1.51.3,2.44.75,3.01,2.46,28.3,85.73,56.68,171.43,85.05,257.14,10.12,30.57,20.24,61.15,30.36,91.72.22.65.4,1.31.66,2.15-.54,0-.95.06-1.33,0-21.62-4.19-43.24-8.39-64.86-12.59-2.03-.39-4.05-.88-6.1-1.14-1.27-.16-1.79-.74-2.17-1.9-4.06-12.41-8.19-24.8-12.29-37.19-6.97-21.04-13.95-42.07-20.87-63.12-.49-1.5-1.18-2.16-2.77-2.47-20.27-3.88-40.53-7.85-60.79-11.79-.24-.05-.49-.04-1.06-.08M367.96,402.47c.67-.93,1.08-1.46,1.46-2.02,11.73-17.39,15.55-36.56,12.43-57.14-2.42-15.96-9.61-29.7-20.8-41.23-14.9-15.36-33.2-23.79-54.47-25.75-12.09-1.12-23.95.1-35.51,3.85-36.32,11.76-53.95,42.31-56.2,67.05-.97,10.7-.51,21.25,2.7,31.52,6.95,22.19,21,38.45,41.71,48.9,10.27,5.18,21.2,8.05,32.68,8.8,9.13.59,18.19.1,27.19-1.58.39-.07.76-.26,1.38-.47-12.47-13.05-24.76-25.93-37.19-38.94.77-.27,1.23-.45,1.7-.6,18.85-5.93,37.71-11.84,56.55-17.82,1.35-.43,2.15-.2,3.09.8,7.21,7.62,14.48,15.19,21.72,22.78.48.5.89,1.06,1.55,1.85M451.9,286.2c-10.18,3.27-20.19,6.49-30.15,9.7v38.2c10.1-3,19.94-6.28,30.16-9.28v24.51c12.08,2.34,23.99,4.65,36.17,7.02v-42.8c9.97-3.24,19.74-6.42,29.49-9.6v-37.78c-9.84,3.06-19.51,6.06-29.46,9.15-.09-5.98.04-11.72-.08-17.53-12.11-2.51-23.99-4.98-36.13-7.5v35.91ZM573.59,175.9c-.15.02-.29.05-.44.07-.5,34.59-1.01,69.17-1.52,103.93,13.01,2.57,25.89,5.11,39.19,7.73-12.51-37.53-24.87-74.63-37.24-111.73"/>
      </g>
    </g>
  </g>
</svg>