<?xml version="1.0" encoding="UTF-8"?>
<svg id="Layer_2" data-name="Layer 2" xmlns="http://www.w3.org/2000/svg" xmlns:xlink="http://www.w3.org/1999/xlink" viewBox="0 0 320 226.26">
  <defs>
    <style>
      .cls-1, .cls-2 {
        stroke-width: 0px;
      }

      .cls-2 {
        fill: none;
      }

      .cls-3 {
        clip-path: url(#clippath-1);
      }

      .cls-4 {
        clip-path: url(#clippath);
      }
    </style>
    <clipPath id="clippath">
      <rect class="cls-2" width="320" height="226.26"/>
    </clipPath>
    <clipPath id="clippath-1">
      <rect class="cls-2" width="320" height="226.26"/>
    </clipPath>
  </defs>
  <g id="Layer_2-2" data-name="Layer 2">
    <g id="Layer_1-2" data-name="Layer 1-2">
      <g class="cls-4">
        <g class="cls-3">
          <path class="cls-1" d="m217.27,131.01v32.62c-17.04,5.26-34.03,10.5-51.15,15.79.97,1.13,1.89,2.14,2.79,3.17.92,1.04,1.84,2.07,2.76,3.11.92,1.04,1.84,2.08,2.76,3.11.91,1.03,1.83,2.06,2.82,3.18-7.65,2.44-15.18,4.84-22.78,7.26-3.72-3.89-7.44-7.78-11.17-11.69-.24.09-.44.16-.64.24-5.77,2.48-11.75,4.23-17.96,5.21-4.66.73-9.35.94-14.06.78-5.82-.19-11.55-.98-17.15-2.61-10.03-2.92-18.94-7.83-26.32-15.31-8-8.12-13.19-17.77-15.43-28.97-1.03-5.13-1.27-10.32-.94-15.55.71-11.33,4.55-21.51,11.35-30.57,6.28-8.37,14.38-14.42,23.98-18.51,2.77-1.18,5.65-2.04,8.5-2.99,35.22-11.68,70.44-23.38,105.67-35.06,3.19-1.06,6.38-2.12,9.57-3.19.44-.15.86-.18,1.32-.09,8.77,1.76,17.54,3.5,26.31,5.23.57.11.93.29,1.14.94,10.76,32.59,21.54,65.16,32.33,97.74,3.85,11.62,7.69,23.24,11.54,34.86.08.25.15.5.25.82-.21,0-.36.02-.51,0-8.22-1.59-16.44-3.19-24.65-4.79-.77-.15-1.54-.33-2.32-.43-.48-.06-.68-.28-.82-.72-1.54-4.72-3.11-9.43-4.67-14.14-2.65-8-5.3-15.99-7.93-23.99-.19-.57-.45-.82-1.05-.94-7.7-1.47-15.41-2.98-23.11-4.48-.09-.02-.19-.02-.4-.03m-77.42,21.96c.25-.35.41-.55.55-.77,4.46-6.61,5.91-13.9,4.72-21.72-.92-6.07-3.65-11.29-7.91-15.67-5.66-5.84-12.62-9.04-20.7-9.79-4.6-.43-9.1.04-13.5,1.46-13.81,4.47-20.51,16.08-21.36,25.49-.37,4.07-.19,8.08,1.03,11.98,2.64,8.43,7.98,14.61,15.85,18.59,3.9,1.97,8.06,3.06,12.42,3.34,3.47.22,6.91.04,10.33-.6.15-.03.29-.1.52-.18-4.74-4.96-9.41-9.86-14.14-14.8.29-.1.47-.17.65-.23,7.16-2.25,14.33-4.5,21.49-6.77.51-.16.82-.08,1.17.3,2.74,2.9,5.5,5.77,8.26,8.66.18.19.34.4.59.7m31.91-44.19c-3.87,1.24-7.67,2.47-11.46,3.69v14.52c3.84-1.14,7.58-2.39,11.46-3.53v9.32c4.59.89,9.12,1.77,13.75,2.67v-16.27c3.79-1.23,7.5-2.44,11.21-3.65v-14.36c-3.74,1.16-7.42,2.3-11.2,3.48-.03-2.27.02-4.45-.03-6.66-4.6-.95-9.12-1.89-13.73-2.85v13.65h0Zm46.25-41.92c-.06,0-.11.02-.17.03-.19,13.15-.38,26.29-.58,39.5,4.95.98,9.84,1.94,14.9,2.94-4.76-14.27-9.45-28.37-14.15-42.47"/>
        </g>
      </g>
    </g>
  </g>
</svg>